<svg xmlns="http://www.w3.org/2000/svg" viewBox="0 0 640 640">
  <path
    fill="currentColor"
    d="M566.6 118.6C579.1 106.1 579.1 85.8 566.6 73.3C554.1 60.8 533.8 60.8 521.3 73.3L477 117.8C433.6 84.1 379.2 64 320 64C178.6 64 64 178.6 64 320C64 379.2 84.1 433.6 117.8 477L73.4 521.4C60.9 533.9 60.9 554.2 73.4 566.7C85.9 579.2 106.2 579.2 118.7 566.7L163 522.2C206.3 555.9 260.8 576 320 576C461.4 576 576 461.4 576 320C576 260.8 555.9 206.4 522.2 163L566.6 118.6zM431.2 163.5L163.5 431.2C141.1 399.9 128 361.5 128 320C128 214 214 128 320 128C361.5 128 399.9 141.1 431.2 163.5zM208.7 476.5L476.5 208.8C498.9 240.2 512 278.6 512 320C512 426 426 512 320 512C278.5 512 240.1 498.9 208.8 476.5z" />
</svg>
