<svg xmlns="http://www.w3.org/2000/svg" width="16" height="16" viewBox="0 0 16 16">
  <g fill="currentColor">
    <path fill="currentColor"
      d="M15,3h-5C9.4,3,9,3.4,9,4s0.4,1,1,1h4v6c-0.6,0-1,0.4-1,1s0.4,1,1,1h1c0.6,0,1-0.4,1-1V4C16,3.4,15.6,3,15,3 z">
    </path>
    <path fill="currentColor"
      d="M6,11H2V5c0.6,0,1-0.4,1-1S2.6,3,2,3H1C0.4,3,0,3.4,0,4v8c0,0.6,0.4,1,1,1h5c0.6,0,1-0.4,1-1S6.6,11,6,11z"></path>
    <rect x="4" y="7" width="8" height="2"></rect>
    <path d="M5.7,6H8L4.9,0.5C4.6,0,4-0.1,3.5,0.1S2.9,1,3.1,1.5L5.7,6z"></path>
    <path d="M10.3,10H8l3.1,5.5c0.2,0.3,0.5,0.5,0.9,0.5c0.2,0,0.3,0,0.5-0.1c0.5-0.3,0.6-0.9,0.4-1.4 L10.3,10z"></path>
  </g>
</svg>
