<svg width="1020" height="600" viewBox="0 0 1020 600" fill="none" xmlns="http://www.w3.org/2000/svg">
<path fill-rule="evenodd" clip-rule="evenodd" d="M370.064 419.776V429.893H434.393V419.776L407.287 419.42V390.621H397.17V419.42L370.064 419.776ZM400.784 433.151H387.053L375.384 566.136L402.235 600L429.087 566.136L417.417 433.151H403.673L404.042 499.326C404.015 499.7 403.853 500.052 403.587 500.317C403.32 500.581 402.966 500.74 402.591 500.764C401.153 500.764 400.428 500.038 400.784 498.956V433.151Z" fill="white"/>
<path d="M318.651 279.855H311.741C311.741 278.022 311.614 275.286 311.385 271.659C311.263 269.478 310.978 267.308 310.532 265.169C309.188 263.543 307.615 262.12 305.862 260.944C301.875 258.302 297.506 256.289 292.907 254.976C287.523 253.477 281.952 252.753 276.363 252.825C261.941 252.825 250.407 257.288 241.762 266.213C233.117 275.138 228.786 287.406 228.769 303.016C228.769 320.052 233.333 333.6 242.462 343.662C251.59 353.724 262.776 358.747 276.02 358.73C279.813 358.721 283.595 358.294 287.295 357.457C290.989 356.641 294.591 355.455 298.048 353.919C298.226 352.367 298.366 349.364 298.481 344.935C298.596 340.506 298.659 337.821 298.659 336.905C298.659 331.365 298.426 328.082 297.959 327.055C297.704 326.653 297.363 326.311 296.96 326.056C296.557 325.801 296.103 325.638 295.63 325.579C293.62 325.002 288.148 324.455 279.214 323.937V316.938L305.048 317.294L331.047 316.938V322.639C327.712 323.339 325.523 324.281 324.48 325.49C323.971 326.075 323.653 327.653 323.538 330.249C323.246 336.867 323.106 341.626 323.106 344.502C323.111 349.006 323.37 353.505 323.882 357.979C314.767 361.431 305.409 364.204 295.885 366.276C288.023 367.873 280.021 368.683 271.998 368.694C259.043 368.694 247.59 366.505 237.639 362.128C230.966 359.267 224.869 355.218 219.644 350.178C214.94 345.644 211.106 340.287 208.331 334.372C204.15 325.211 202.055 315.236 202.197 305.167C202.029 297.094 203.389 289.063 206.206 281.496C208.772 274.946 212.574 268.949 217.404 263.833C222.089 258.86 227.579 254.712 233.643 251.565C239.665 248.452 246.089 246.186 252.731 244.833C259.945 243.421 267.282 242.739 274.633 242.797C283.817 242.734 292.984 243.634 301.981 245.482C308.755 246.742 315.382 248.695 321.757 251.311L322.444 252.952C321.069 258.043 319.805 267.01 318.651 279.855Z" fill="white"/>
<path d="M343.696 365.729V358.564C346.492 358.441 349.276 358.135 352.032 357.648C352.874 357.417 353.656 357.004 354.322 356.439C355.107 355.704 355.765 354.844 356.269 353.894C356.931 352.706 358.904 348.312 362.187 340.71C363.688 337.147 366.569 330.092 370.828 319.547L393.378 263.922L401.013 244.312H413.281L451.892 334.5L457.249 346.335L460.711 354.276C461.129 355.113 461.684 355.874 462.352 356.528C462.866 356.988 463.468 357.339 464.121 357.559C465.794 357.926 467.499 358.131 469.211 358.17C470.077 358.285 471.337 358.425 473.029 358.603V365.767L449.015 365.246L418.69 365.767V358.603C425.651 358.31 429.583 357.928 430.474 357.432C430.914 357.199 431.277 356.843 431.517 356.406C431.757 355.97 431.863 355.472 431.823 354.976C431.56 352.519 430.889 350.124 429.838 347.887L422.406 328.875H377.992L374.175 339.247C371.29 347.205 369.848 352.159 369.848 354.11C369.797 354.678 369.899 355.248 370.143 355.763C370.387 356.277 370.764 356.717 371.235 357.037C372.622 357.852 376.732 358.374 383.592 358.603V365.767L363.638 365.246L343.696 365.729ZM381.874 319C387.286 319.161 393.42 319.246 400.275 319.254C406.893 319.254 412.832 319.169 418.092 319L399.601 274.459L381.874 319Z" fill="white"/>
<path d="M483.299 365.729V358.386C489.815 357.928 493.675 357.466 494.88 356.999C495.546 356.79 496.123 356.364 496.521 355.79C497.128 354.796 497.482 353.669 497.552 352.507C497.959 349.232 498.307 342.063 498.595 331C498.757 325.647 498.841 316.433 498.85 303.36C498.85 291.669 498.765 281.314 498.595 272.296C498.426 263.277 498.053 257.907 497.476 256.185C497.293 255.477 496.919 254.834 496.394 254.327C495.551 253.773 494.585 253.433 493.581 253.334C490.18 252.749 486.746 252.375 483.299 252.214V244.871C495.176 245.211 503.355 245.385 507.834 245.393C513.773 245.393 519.712 245.219 525.651 244.871L533.286 261.975L539.331 274.93L566.806 331.611C572.677 320.26 577.08 311.445 580.016 305.167L591.469 281.242C597.806 267.88 601.679 259.659 603.088 256.579C604.496 253.5 606.095 249.597 607.885 244.871C615.428 245.279 620.268 245.482 622.406 245.482L648.15 244.871V252.214H646.877C641.049 252.214 637.371 252.838 635.819 254.25C634.266 255.663 633.477 258.374 633.477 262.408C633.477 267.193 633.452 270.824 633.401 273.301L632.968 297.569V327.895C632.968 335.263 632.968 339.59 633.044 340.85C633.515 348.167 633.91 352.66 634.317 354.327C634.456 355.049 634.785 355.722 635.271 356.274C635.823 356.816 636.508 357.202 637.257 357.394C640.865 357.935 644.503 358.267 648.15 358.386V365.729L620.586 365.207L593.632 365.729V358.386C600.776 358.157 604.852 357.733 605.862 357.114C606.867 356.503 607.58 355.141 608.013 353.003C608.445 350.865 608.662 343.739 608.662 331.586V268.72L588.618 309.226L579.036 329.359C576.491 334.67 572.919 342.36 568.321 352.431C565.495 358.531 563.277 363.455 561.665 367.205H555.798C553.72 362.361 550.725 355.735 546.814 347.328C540.137 332.905 535.047 322.164 531.543 315.106L508.827 268.72V311.122C508.827 318.215 508.925 326.635 509.12 336.383C509.315 346.131 509.531 351.646 509.769 352.927C509.886 353.937 510.258 354.9 510.851 355.727C511.555 356.432 512.433 356.941 513.396 357.203C516.882 357.878 520.42 358.253 523.971 358.323V365.666C517.532 365.322 510.927 365.144 504.195 365.144C495.478 365.207 488.491 365.386 483.299 365.729Z" fill="white"/>
<path d="M717.226 244.871V252.507C713.763 252.505 710.304 252.718 706.867 253.143C706.034 253.298 705.241 253.623 704.538 254.098C704.078 254.461 703.744 254.959 703.584 255.523C703.037 257.345 702.746 259.233 702.719 261.135C702.6 262.637 702.515 265.462 702.464 269.611C702.227 283.77 702.108 291.406 702.108 292.517V327.284L702.375 343.09C702.375 349.033 702.655 352.889 703.24 354.67C703.415 355.399 703.822 356.051 704.398 356.528C705.164 357.051 706.032 357.406 706.944 357.572C710.322 357.97 713.722 358.157 717.124 358.132V365.767C707.741 365.419 697.722 365.246 687.066 365.246C677.793 365.246 669.53 365.419 662.276 365.767V358.132C668.257 357.903 671.718 357.699 672.635 357.521C673.524 357.421 674.373 357.097 675.104 356.579C675.512 356.212 675.796 355.727 675.918 355.192C676.096 354.505 676.329 351.799 676.618 347.073C677.076 340.167 677.305 333.774 677.305 327.895V291.779C677.305 280.326 677.246 272.953 677.127 269.661C677.076 265.067 676.732 260.481 676.096 255.93C675.976 255.291 675.691 254.694 675.269 254.2C674.681 253.693 673.97 253.351 673.207 253.207C669.581 252.751 665.931 252.509 662.276 252.482V244.846C669.53 245.185 677.852 245.359 687.244 245.368C697.857 245.385 707.851 245.219 717.226 244.871Z" fill="white"/>
<path d="M729.685 358.386C733.587 358.314 737.48 357.995 741.342 357.432C741.968 357.212 742.523 356.825 742.945 356.312C743.542 355.342 743.911 354.25 744.027 353.118C744.375 350.929 744.799 345.631 745.299 337.223C745.529 332.438 745.643 326.22 745.643 318.567V290.837L745.223 265.691C745.272 262.945 745.097 260.2 744.701 257.483C744.517 256.458 744.08 255.496 743.429 254.683C742.673 253.962 741.729 253.468 740.705 253.258C737.048 252.635 733.354 252.257 729.647 252.125V244.871C736.968 245.211 742.351 245.385 745.796 245.393L758.331 245.126L766.272 244.871C778.149 260.372 792.521 278.226 809.387 298.435C821.536 313.01 831.615 324.412 839.624 332.642V312.688C839.624 281.696 839.276 263.456 838.58 257.966C838.351 255.841 837.829 254.454 837.028 253.818C835.755 252.787 831.212 252.202 823.551 252.087V244.833C830.576 245.173 837.028 245.347 842.907 245.355C848.608 245.355 855.951 245.181 864.936 244.833V252.087C857.902 252.265 853.724 252.787 852.401 253.652C851.935 253.94 851.598 254.396 851.459 254.925C850.61 257.809 850.046 264.393 849.766 274.675C849.486 284.958 849.359 292.543 849.384 297.429C849.384 335.734 849.758 358.976 850.504 367.154L849.384 367.931C844.549 367.082 839.624 366.332 834.61 365.678C816.005 344.884 789.628 313.668 755.48 272.029V315.055C755.48 323.988 755.65 333.291 755.989 342.963C756.218 349.644 756.575 353.703 757.033 355.141C757.243 355.808 757.651 356.394 758.204 356.821C759.074 357.366 760.067 357.681 761.092 357.737C763.814 358.115 766.554 358.345 769.3 358.425C769.644 358.425 770.217 358.425 771.031 358.335V365.335C760.087 365.224 753.864 365.165 752.362 365.157C746.78 365.157 739.208 365.33 729.647 365.678L729.685 358.386Z" fill="white"/>
<path d="M996.801 279.855H989.891C989.891 278.022 989.776 275.291 989.547 271.659C989.416 269.478 989.127 267.309 988.682 265.169C987.337 263.543 985.764 262.12 984.012 260.944C980.025 258.302 975.656 256.289 971.057 254.976C965.672 253.477 960.102 252.753 954.513 252.825C940.09 252.825 928.561 257.288 919.924 266.213C911.287 275.138 906.927 287.406 906.842 303.016C906.842 320.052 911.406 333.601 920.535 343.663C929.664 353.724 940.85 358.747 954.093 358.73C957.887 358.721 961.668 358.294 965.368 357.457C969.062 356.641 972.664 355.455 976.122 353.92C976.3 352.367 976.44 349.364 976.554 344.935C976.669 340.506 976.732 337.821 976.732 336.905C976.732 331.365 976.503 328.082 976.045 327.055C975.785 326.654 975.441 326.314 975.037 326.059C974.633 325.804 974.178 325.641 973.704 325.579C971.693 325.002 966.225 324.455 957.3 323.937V316.938L983.121 317.294L1009.13 316.938V322.639C1005.79 323.339 1003.6 324.281 1002.57 325.49C1002.04 326.075 1001.73 327.653 1001.61 330.249C1001.32 336.867 1001.18 341.626 1001.18 344.502C1001.18 349.006 1001.44 353.505 1001.96 357.979C992.84 361.431 983.482 364.204 973.958 366.276C966.096 367.873 958.094 368.683 950.072 368.694C937.117 368.694 925.663 366.505 915.712 362.128C909.075 359.236 903.017 355.166 897.832 350.115C893.125 345.599 889.279 340.265 886.48 334.373C882.306 325.209 880.211 315.235 880.347 305.167C880.176 297.093 881.541 289.061 884.368 281.497C886.927 274.944 890.725 268.947 895.554 263.833C900.25 258.856 905.753 254.709 911.83 251.565C917.852 248.451 924.276 246.185 930.919 244.833C938.128 243.42 945.462 242.738 952.808 242.797C961.992 242.734 971.159 243.634 980.156 245.482C986.921 246.744 993.54 248.697 999.906 251.311L1000.59 252.952C999.219 258.043 997.955 267.01 996.801 279.855Z" fill="white"/>
<path fill-rule="evenodd" clip-rule="evenodd" d="M259.794 99.6691C259.794 99.6691 223.831 109.697 225.002 145.075C225.002 145.075 282.79 109.112 313.447 161.619C313.447 161.619 256.256 119.763 219.11 171.647C219.11 171.647 262.747 145.699 289.28 174.599C289.28 174.599 251.535 162.217 240.336 180.491C240.336 180.491 271.591 168.694 309.909 194.642C345.287 163.388 354.729 228.837 393.645 223.53C419.581 219.992 407.796 182.26 403.66 179.308C403.66 179.308 397.183 221.176 385.971 175.77C368.282 217.053 339.98 154.543 327.012 135.683C327.012 135.683 344.116 114.457 394.231 127.424C394.231 127.424 426.656 133.316 440.222 118.516V138.05C444.892 125.617 453.8 102.036 461.436 136.778C495.63 74.8664 422.52 83.1255 389.497 84.8944C390.68 45.4441 308.725 69.6233 264.503 21.265L267.443 40.7228C260.965 7.71188 214.974 19.4961 191.38 0C202.591 28.8878 238.555 17.689 238.555 42.4535C238.555 44.2224 228.527 25.35 196.687 30.0713C196.687 30.0713 135.959 28.3024 130.067 12.3823C144.218 55.4212 235.017 30.0713 214.974 50.1145C214.974 50.1145 111.194 64.8638 82.8918 15.9201C85.8569 118.542 240.922 32.4255 259.794 99.6691ZM345.885 104.39C342.347 84.3472 314.07 87.2868 314.07 87.2868C345.885 66.0601 367.137 99.6691 367.137 99.6691L345.885 104.39Z" fill="white"/>
<path fill-rule="evenodd" clip-rule="evenodd" d="M211.449 163.349C211.449 163.349 204.958 115.589 243.263 94.3624C218.499 74.9046 180.168 93.7771 141.851 83.1637C141.851 83.1637 180.767 98.4347 184.304 108.514C184.304 108.514 104.131 67.7908 52.8078 113.82C52.8078 113.82 97.0303 106.745 111.181 127.386C111.181 127.386 43.378 108.514 8 171.023C8 171.023 50.4536 152.736 66.959 165.118C66.959 165.118 16.2591 173.377 10.3543 231.751C10.3543 231.751 20.3823 211.11 54.5767 204.034C54.5767 204.034 9.76889 235.849 27.4579 328.442C27.4579 328.442 32.7646 288.992 49.8681 278.328C49.8681 278.328 37.4859 341.423 99.9827 386.816V355.001C99.9827 355.001 157.173 436.371 298.685 415.144C127.127 397.429 85.8569 214.648 211.449 163.349Z" fill="white"/>
<path d="M462.772 490.99C462.772 480.453 464.371 471.269 467.57 463.438C470.535 456.105 475.014 449.481 480.716 443.998C486.418 438.516 493.213 434.299 500.657 431.624C510.092 428.485 519.984 426.937 529.927 427.042C539.607 426.915 549.241 428.403 558.432 431.446C570.056 435.609 579.902 443.631 586.328 454.174C588.925 458.743 590.862 463.658 592.08 468.771C593.429 474.517 594.082 480.405 594.027 486.307C594.118 496.625 592.208 506.863 588.402 516.455C585.649 523.347 581.523 529.608 576.274 534.856C571.075 540.12 564.898 544.318 558.089 547.213C547.917 551.223 537.054 553.186 526.122 552.991C513.167 552.991 502.036 550.645 492.729 545.953C483.532 541.354 475.909 534.125 470.828 525.184C465.457 516.039 462.772 504.641 462.772 490.99ZM489.382 485.9C489.382 499.313 491.223 510.414 494.905 519.203C498.587 527.993 503.308 534.199 509.069 537.821C515.197 541.542 522.263 543.428 529.43 543.255C536.275 543.368 543.017 541.575 548.901 538.076C554.636 534.631 559.128 528.786 562.378 520.54C565.627 512.293 567.269 502.299 567.302 490.557C567.376 483.107 566.491 475.677 564.668 468.452C563.176 462.362 560.617 456.584 557.109 451.387C554.114 446.958 550.138 443.278 545.49 440.634C541.028 438.156 535.11 436.918 527.738 436.918C519.322 436.918 512.165 438.89 506.269 442.835C500.373 446.78 496.08 452.613 493.391 460.333C490.651 468.574 489.313 477.216 489.433 485.9H489.382Z" fill="white"/>
<path d="M610.151 490.99C610.151 480.453 611.75 471.269 614.948 463.438C617.913 456.105 622.393 449.481 628.095 443.998C633.797 438.516 640.592 434.299 648.036 431.624C657.45 428.492 667.32 426.944 677.241 427.042C686.922 426.915 696.556 428.403 705.747 431.446C717.372 435.613 727.22 443.634 733.655 454.174C736.244 458.746 738.176 463.66 739.395 468.771C740.744 474.517 741.397 480.405 741.342 486.307C741.439 496.626 739.529 506.865 735.717 516.455C732.967 523.357 728.841 529.626 723.589 534.882C718.39 540.146 712.213 544.344 705.404 547.238C695.232 551.248 684.369 553.212 673.436 553.016C660.481 553.016 649.351 550.67 640.044 545.979C630.846 541.379 623.223 534.15 618.142 525.21C612.815 516.047 610.151 504.641 610.151 490.99ZM636.76 485.9C636.76 499.313 638.601 510.414 642.283 519.203C645.965 527.993 650.691 534.199 656.46 537.821C662.586 541.546 669.654 543.432 676.821 543.255C683.666 543.368 690.408 541.575 696.292 538.076C702.027 534.631 706.519 528.786 709.769 520.54C713.018 512.293 714.656 502.299 714.681 490.557C714.755 483.107 713.869 475.677 712.047 468.452C710.559 462.363 708.004 456.585 704.5 451.387C701.505 446.958 697.529 443.278 692.882 440.634C688.419 438.156 682.48 436.918 675.065 436.918C666.649 436.918 659.493 438.89 653.597 442.835C647.7 446.78 643.408 452.613 640.718 460.333C637.978 468.574 636.64 477.216 636.76 485.9V485.9Z" fill="white"/>
<path d="M760.036 550V545.597C762.226 544.609 764.352 543.482 766.399 542.224C767.276 541.791 768.069 541.205 768.74 540.494C768.963 540.222 769.111 539.898 769.173 539.552C769.453 538.101 769.72 532.973 769.949 524.128C770.179 515.284 770.293 504.67 770.293 492.313C770.293 474.115 770.234 462.887 770.115 458.628C769.886 447.803 769.513 441.609 768.995 440.048C768.79 439.384 768.333 438.827 767.722 438.496C766.399 437.647 761.996 437.07 754.513 436.765V429.13C761.818 429.469 770.166 429.643 779.557 429.651C790.044 429.651 799.978 429.477 809.362 429.13V436.765C802.859 437.058 798.875 437.58 797.437 438.318C796.788 438.695 796.299 439.297 796.063 440.01C795.77 440.786 795.503 444.337 795.236 450.674C794.969 457.012 794.854 465.016 794.854 474.688C794.854 475.732 794.884 484.054 794.943 499.656C794.994 507.894 795.036 516.06 795.07 524.154C795.07 532.247 795.07 537.147 795.198 538.877C803.139 539.225 808.551 539.399 811.436 539.399C819.1 539.475 826.759 538.956 834.342 537.847C835.818 537.768 837.262 537.382 838.58 536.714C839.305 535.775 839.806 534.682 840.044 533.52C841.206 529.142 842.33 524.132 843.416 518.491H850.581C850.415 520.107 850.326 521.036 850.326 521.341L848.163 538.788C847.705 544.261 847.446 547.544 847.387 548.638C845.745 549.098 844.068 549.418 842.372 549.593C838.86 549.89 833.418 550.034 826.045 550.025C825.019 550.025 818.253 549.881 805.747 549.593C796.237 549.364 789.615 549.249 785.882 549.249C780.164 549.232 771.549 549.482 760.036 550Z" fill="white"/>
<path d="M945.338 460.753H938.084C938.099 456.018 937.81 451.287 937.218 446.59C935.428 444.044 932.332 441.8 927.929 439.858C923.254 437.842 918.205 436.841 913.116 436.918C905.276 436.918 899.215 438.89 894.93 442.835C892.921 444.544 891.305 446.668 890.194 449.06C889.082 451.452 888.501 454.056 888.491 456.694C888.416 459.883 889.068 463.047 890.4 465.946C891.573 468.26 893.366 470.203 895.579 471.558C898.696 473.292 902.042 474.577 905.518 475.375C908.852 476.063 913.519 476.911 919.517 477.921C925.472 478.964 929.354 479.677 931.136 480.084C935.089 481.013 938.896 482.481 942.449 484.449C945.095 485.946 947.428 487.937 949.321 490.316C951.177 492.857 952.592 495.692 953.508 498.702C954.648 502.38 955.202 506.215 955.149 510.066C955.295 516.827 953.718 523.514 950.568 529.499C948.106 533.896 944.858 537.804 940.985 541.028C937.233 544.303 932.974 546.946 928.374 548.855C921.468 551.62 913.175 552.999 903.495 552.991C897.131 553.069 890.78 552.403 884.571 551.005C878.267 549.401 872.157 547.114 866.348 544.184C868.13 537.618 869.05 527.624 869.11 514.202H876.3C876.245 519.377 876.564 524.548 877.254 529.677C879.443 533.24 883.184 536.379 888.478 539.094C893.861 541.816 899.818 543.208 905.849 543.153C910.879 543.242 915.869 542.253 920.484 540.252C924.378 538.671 927.653 535.866 929.812 532.26C931.784 528.728 932.785 524.737 932.714 520.692C932.806 517.459 932.107 514.253 930.677 511.351C929.242 508.679 927.021 506.512 924.314 505.141C921.438 503.572 916.373 501.96 909.12 500.305C898.684 498.117 891.829 496.53 888.555 495.546C884.12 494.34 880.026 492.123 876.592 489.068C873.565 486.253 871.242 482.766 869.81 478.888C868.285 474.753 867.522 470.377 867.557 465.971C867.504 459.797 868.894 453.696 871.617 448.155C874.023 443.072 877.717 438.707 882.332 435.493C886.904 432.446 891.999 430.267 897.361 429.066C902.999 427.763 908.767 427.109 914.554 427.119C920.504 427.089 926.444 427.621 932.294 428.71C937.452 429.615 942.464 431.212 947.196 433.456L947.895 435.531C947.103 439.169 946.508 442.848 946.114 446.551C945.783 450.153 945.503 454.925 945.338 460.753Z" fill="white"/>
<path d="M411.869 387.478H390.858C389.565 387.478 388.517 388.523 388.517 389.813C388.517 391.103 389.565 392.148 390.858 392.148H411.869C413.162 392.148 414.21 391.103 414.21 389.813C414.21 388.523 413.162 387.478 411.869 387.478Z" fill="white"/>
</svg>
