{
	"buffers": [
		{
			"uri": "data:application/octet-stream;base64,",
			"byteLength": 1421922
		}
	],
	"accessors": [
		{
			"bufferView": 0,
			"componentType": 5126,
			"count": 974,
			"type": "VEC3",
			"max": [
				0.1788330078125,
				0.06854248046875,
				0.13818359375
			],
			"min": [
				-0.1834716796875,
				-0.16748046875,
				-0.211669921875
			]
		},
		{
			"bufferView": 1,
			"componentType": 5126,
			"count": 974,
			"type": "VEC3"
		},
		{
			"bufferView": 2,
			"componentType": 5126,
			"count": 974,
			"type": "VEC2"
		},
		{
			"bufferView": 3,
			"componentType": 5121,
			"normalized": true,
			"count": 974,
			"type": "VEC4"
		},
		{
			"bufferView": 4,
			"componentType": 5123,
			"count": 4956,
			"type": "SCALAR"
		},
		{
			"bufferView": 5,
			"componentType": 5126,
			"count": 974,
			"type": "VEC4"
		},
		{
			"bufferView": 6,
			"componentType": 5126,
			"count": 974,
			"type": "VEC3"
		},
		{
			"bufferView": 7,
			"componentType": 5126,
			"count": 460,
			"type": "VEC3",
			"max": [
				0.1895751953125,
				0.109619140625,
				0.11566162109375
			],
			"min": [
				-0.2174072265625,
				-0.01453399658203125,
				-1.33984375
			]
		},
		{
			"bufferView": 8,
			"componentType": 5126,
			"count": 460,
			"type": "VEC3"
		},
		{
			"bufferView": 9,
			"componentType": 5126,
			"count": 460,
			"type": "VEC2"
		},
		{
			"bufferView": 10,
			"componentType": 5121,
			"normalized": true,
			"count": 460,
			"type": "VEC4"
		},
		{
			"bufferView": 11,
			"componentType": 5123,
			"count": 1260,
			"type": "SCALAR"
		},
		{
			"bufferView": 12,
			"componentType": 5126,
			"count": 460,
			"type": "VEC4"
		},
		{
			"bufferView": 13,
			"componentType": 5126,
			"count": 460,
			"type": "VEC3"
		},
		{
			"bufferView": 14,
			"componentType": 5126,
			"count": 848,
			"type": "VEC3",
			"max": [
				0.1243896484375,
				0.0260009765625,
				0.18701171875
			],
			"min": [
				-0.150146484375,
				-0.1832275390625,
				-0.230712890625
			]
		},
		{
			"bufferView": 15,
			"componentType": 5126,
			"count": 848,
			"type": "VEC3"
		},
		{
			"bufferView": 16,
			"componentType": 5126,
			"count": 848,
			"type": "VEC2"
		},
		{
			"bufferView": 17,
			"componentType": 5121,
			"normalized": true,
			"count": 848,
			"type": "VEC4"
		},
		{
			"bufferView": 18,
			"componentType": 5123,
			"count": 2262,
			"type": "SCALAR"
		},
		{
			"bufferView": 19,
			"componentType": 5126,
			"count": 848,
			"type": "VEC4"
		},
		{
			"bufferView": 20,
			"componentType": 5126,
			"count": 848,
			"type": "VEC3"
		},
		{
			"bufferView": 21,
			"componentType": 5126,
			"count": 1136,
			"type": "VEC3",
			"max": [
				-0.2032470703125,
				0.224609375,
				0.81982421875
			],
			"min": [
				-0.39501953125,
				0.04278564453125,
				0.40283203125
			]
		},
		{
			"bufferView": 22,
			"componentType": 5126,
			"count": 1136,
			"type": "VEC3"
		},
		{
			"bufferView": 23,
			"componentType": 5126,
			"count": 1136,
			"type": "VEC2"
		},
		{
			"bufferView": 24,
			"componentType": 5121,
			"normalized": true,
			"count": 1136,
			"type": "VEC4"
		},
		{
			"bufferView": 25,
			"componentType": 5123,
			"count": 2238,
			"type": "SCALAR"
		},
		{
			"bufferView": 26,
			"componentType": 5126,
			"count": 1136,
			"type": "VEC4"
		},
		{
			"bufferView": 27,
			"componentType": 5126,
			"count": 1136,
			"type": "VEC3"
		},
		{
			"bufferView": 28,
			"componentType": 5126,
			"count": 8756,
			"type": "VEC3",
			"max": [
				0.7978515625,
				0.2169189453125,
				0.73046875
			],
			"min": [
				-0.84326171875,
				-0.1868896484375,
				-1.0634765625
			]
		},
		{
			"bufferView": 29,
			"componentType": 5126,
			"count": 8756,
			"type": "VEC3"
		},
		{
			"bufferView": 30,
			"componentType": 5126,
			"count": 8756,
			"type": "VEC2"
		},
		{
			"bufferView": 31,
			"componentType": 5121,
			"normalized": true,
			"count": 8756,
			"type": "VEC4"
		},
		{
			"bufferView": 32,
			"componentType": 5123,
			"count": 38664,
			"type": "SCALAR"
		},
		{
			"bufferView": 33,
			"componentType": 5126,
			"count": 8756,
			"type": "VEC4"
		},
		{
			"bufferView": 34,
			"componentType": 5126,
			"count": 8756,
			"type": "VEC3"
		},
		{
			"bufferView": 35,
			"componentType": 5126,
			"count": 396,
			"type": "VEC3",
			"max": [
				0.142578125,
				0.1707763671875,
				0.325927734375
			],
			"min": [
				-0.19921875,
				-0.133544921875,
				-1.95703125
			]
		},
		{
			"bufferView": 36,
			"componentType": 5126,
			"count": 396,
			"type": "VEC3"
		},
		{
			"bufferView": 37,
			"componentType": 5126,
			"count": 396,
			"type": "VEC2"
		},
		{
			"bufferView": 38,
			"componentType": 5121,
			"normalized": true,
			"count": 396,
			"type": "VEC4"
		},
		{
			"bufferView": 39,
			"componentType": 5123,
			"count": 1422,
			"type": "SCALAR"
		},
		{
			"bufferView": 40,
			"componentType": 5126,
			"count": 396,
			"type": "VEC4"
		},
		{
			"bufferView": 41,
			"componentType": 5126,
			"count": 396,
			"type": "VEC3"
		},
		{
			"bufferView": 42,
			"componentType": 5126,
			"count": 4189,
			"type": "VEC3",
			"max": [
				0.6142578125,
				0.132080078125,
				0.467041015625
			],
			"min": [
				-0.64501953125,
				-0.1412353515625,
				-0.52490234375
			]
		},
		{
			"bufferView": 43,
			"componentType": 5126,
			"count": 4189,
			"type": "VEC3"
		},
		{
			"bufferView": 44,
			"componentType": 5126,
			"count": 4189,
			"type": "VEC2"
		},
		{
			"bufferView": 45,
			"componentType": 5121,
			"normalized": true,
			"count": 4189,
			"type": "VEC4"
		},
		{
			"bufferView": 46,
			"componentType": 5123,
			"count": 15282,
			"type": "SCALAR"
		},
		{
			"bufferView": 47,
			"componentType": 5126,
			"count": 4189,
			"type": "VEC4"
		},
		{
			"bufferView": 48,
			"componentType": 5126,
			"count": 4189,
			"type": "VEC3"
		}
	],
	"asset": {
		"generator": "qmuntal/gltf",
		"version": "2.0"
	},
	"bufferViews": [
		{
			"buffer": 0,
			"byteLength": 11688,
			"target": 34962
		},
		{
			"buffer": 0,
			"byteOffset": 11688,
			"byteLength": 11688,
			"target": 34962
		},
		{
			"buffer": 0,
			"byteOffset": 23376,
			"byteLength": 7792,
			"target": 34962
		},
		{
			"buffer": 0,
			"byteOffset": 31168,
			"byteLength": 3896,
			"target": 34962
		},
		{
			"buffer": 0,
			"byteOffset": 35064,
			"byteLength": 9912,
			"target": 34963
		},
		{
			"buffer": 0,
			"byteOffset": 44976,
			"byteLength": 15584,
			"target": 34962
		},
		{
			"buffer": 0,
			"byteOffset": 60560,
			"byteLength": 11688,
			"target": 34962
		},
		{
			"buffer": 0,
			"byteOffset": 72248,
			"byteLength": 5520,
			"target": 34962
		},
		{
			"buffer": 0,
			"byteOffset": 77768,
			"byteLength": 5520,
			"target": 34962
		},
		{
			"buffer": 0,
			"byteOffset": 83288,
			"byteLength": 3680,
			"target": 34962
		},
		{
			"buffer": 0,
			"byteOffset": 86968,
			"byteLength": 1840,
			"target": 34962
		},
		{
			"buffer": 0,
			"byteOffset": 88808,
			"byteLength": 2520,
			"target": 34963
		},
		{
			"buffer": 0,
			"byteOffset": 91328,
			"byteLength": 7360,
			"target": 34962
		},
		{
			"buffer": 0,
			"byteOffset": 98688,
			"byteLength": 5520,
			"target": 34962
		},
		{
			"buffer": 0,
			"byteOffset": 104208,
			"byteLength": 10176,
			"target": 34962
		},
		{
			"buffer": 0,
			"byteOffset": 114384,
			"byteLength": 10176,
			"target": 34962
		},
		{
			"buffer": 0,
			"byteOffset": 124560,
			"byteLength": 6784,
			"target": 34962
		},
		{
			"buffer": 0,
			"byteOffset": 131344,
			"byteLength": 3392,
			"target": 34962
		},
		{
			"buffer": 0,
			"byteOffset": 134736,
			"byteLength": 4524,
			"target": 34963
		},
		{
			"buffer": 0,
			"byteOffset": 139260,
			"byteLength": 13568,
			"target": 34962
		},
		{
			"buffer": 0,
			"byteOffset": 152828,
			"byteLength": 10176,
			"target": 34962
		},
		{
			"buffer": 0,
			"byteOffset": 163004,
			"byteLength": 13632,
			"target": 34962
		},
		{
			"buffer": 0,
			"byteOffset": 176636,
			"byteLength": 13632,
			"target": 34962
		},
		{
			"buffer": 0,
			"byteOffset": 190268,
			"byteLength": 9088,
			"target": 34962
		},
		{
			"buffer": 0,
			"byteOffset": 199356,
			"byteLength": 4544,
			"target": 34962
		},
		{
			"buffer": 0,
			"byteOffset": 203900,
			"byteLength": 4476,
			"target": 34963
		},
		{
			"buffer": 0,
			"byteOffset": 208376,
			"byteLength": 18176,
			"target": 34962
		},
		{
			"buffer": 0,
			"byteOffset": 226552,
			"byteLength": 13632,
			"target": 34962
		},
		{
			"buffer": 0,
			"byteOffset": 240184,
			"byteLength": 105072,
			"target": 34962
		},
		{
			"buffer": 0,
			"byteOffset": 345256,
			"byteLength": 105072,
			"target": 34962
		},
		{
			"buffer": 0,
			"byteOffset": 450328,
			"byteLength": 70048,
			"target": 34962
		},
		{
			"buffer": 0,
			"byteOffset": 520376,
			"byteLength": 35024,
			"target": 34962
		},
		{
			"buffer": 0,
			"byteOffset": 555400,
			"byteLength": 77328,
			"target": 34963
		},
		{
			"buffer": 0,
			"byteOffset": 632728,
			"byteLength": 140096,
			"target": 34962
		},
		{
			"buffer": 0,
			"byteOffset": 772824,
			"byteLength": 105072,
			"target": 34962
		},
		{
			"buffer": 0,
			"byteOffset": 877896,
			"byteLength": 4752,
			"target": 34962
		},
		{
			"buffer": 0,
			"byteOffset": 882648,
			"byteLength": 4752,
			"target": 34962
		},
		{
			"buffer": 0,
			"byteOffset": 887400,
			"byteLength": 3168,
			"target": 34962
		},
		{
			"buffer": 0,
			"byteOffset": 890568,
			"byteLength": 1584,
			"target": 34962
		},
		{
			"buffer": 0,
			"byteOffset": 892152,
			"byteLength": 2844,
			"target": 34963
		},
		{
			"buffer": 0,
			"byteOffset": 894996,
			"byteLength": 6336,
			"target": 34962
		},
		{
			"buffer": 0,
			"byteOffset": 901332,
			"byteLength": 4752,
			"target": 34962
		},
		{
			"buffer": 0,
			"byteOffset": 906084,
			"byteLength": 50268,
			"target": 34962
		},
		{
			"buffer": 0,
			"byteOffset": 956352,
			"byteLength": 50268,
			"target": 34962
		},
		{
			"buffer": 0,
			"byteOffset": 1006620,
			"byteLength": 33512,
			"target": 34962
		},
		{
			"buffer": 0,
			"byteOffset": 1040132,
			"byteLength": 16756,
			"target": 34962
		},
		{
			"buffer": 0,
			"byteOffset": 1056888,
			"byteLength": 30564,
			"target": 34963
		},
		{
			"buffer": 0,
			"byteOffset": 1087452,
			"byteLength": 67024,
			"target": 34962
		},
		{
			"buffer": 0,
			"byteOffset": 1154476,
			"byteLength": 50268,
			"target": 34962
		},
		{
			"buffer": 0,
			"byteOffset": 1204744,
			"byteLength": 114920
		},
		{
			"buffer": 0,
			"byteOffset": 1319664,
			"byteLength": 102258
		}
	],
	"images": [
		{
			"name": "objects/housing/season_07/textures/s7_shld_roundshieldprimeval_diff.dds",
			"mimeType": "image/png",
			"bufferView": 49
		},
		{
			"name": "objects/housing/season_07/textures/s7_shld_roundshieldprimeval_spec.dds",
			"mimeType": "image/png",
			"bufferView": 50
		}
	],
	"materials": [
		{
			"extras": {
				"refId": "b5d86005ae157f38ec1eb5300d3be6f6"
			},
			"name": "objects/weapons/shields/roundshieldnagacorrupted/wep_mel_shld_1h_roundshieldnagacorrupted_matgroup",
			"pbrMetallicRoughness": {
				"baseColorFactor": [
					0.4969330132007599,
					0.4969330132007599,
					0.4969330132007599,
					1
				]
			}
		},
		{
			"extras": {
				"refId": "7aaf211ec5f995c6aa79be46c1788aaf"
			},
			"name": "JAV_PRP_HumanSkeleton_skull",
			"pbrMetallicRoughness": {
				"baseColorFactor": [
					0.4910210072994232,
					0.4910210072994232,
					0.4910210072994232,
					1
				]
			}
		},
		{
			"extras": {
				"refId": "38dfe352eed2092b29986bfd13fb5aa4"
			},
			"name": "jav_lm_corruption_fissure_02_mat",
			"pbrMetallicRoughness": {
				"baseColorFactor": [
					0.3049873411655426,
					0.3049873411655426,
					0.3049873411655426,
					1
				]
			}
		},
		{
			"alphaCutoff": 0.009999999776482582,
			"extras": {
				"refId": "7999f7189aed796789a5bb3d43f0e220"
			},
			"name": "drips_a",
			"pbrMetallicRoughness": {
				"baseColorFactor": [
					0.49102088809013367,
					0.49102088809013367,
					0.49102088809013367,
					1
				]
			},
			"alphaMode": "BLEND",
			"doubleSided": true
		},
		{
			"alphaCutoff": 0.05000000074505806,
			"extras": {
				"refId": "f3f25afaa5836a0aefa85ad732397371"
			},
			"name": "drips_b",
			"pbrMetallicRoughness": {
				"baseColorFactor": [
					0.49102088809013367,
					0.49102088809013367,
					0.49102088809013367,
					1
				]
			},
			"alphaMode": "BLEND",
			"doubleSided": true
		},
		{
			"extensions": {
				"KHR_materials_pbrSpecularGlossiness": {
					"diffuseFactor": [
						0.4969330132007599,
						0.4969330132007599,
						0.4969330132007599,
						1
					],
					"diffuseTexture": {
						"index": 0
					},
					"specularGlossinessTexture": {
						"index": 1
					}
				}
			},
			"extras": {
				"refId": "a047503c6545de5bd9247f20130f58e6"
			},
			"name": "objects/weapons/shields/roundshieldprimeval/wep_mel_shld_1h_roundshieldprimeval_matgroup",
			"pbrMetallicRoughness": {
				"roughnessFactor": 0
			}
		},
		{
			"extras": {
				"refId": "25f329759f542e952830cb0a9586b2be"
			},
			"name": "JAV_PRP_HumanSkeleton_body",
			"pbrMetallicRoughness": {
				"baseColorFactor": [
					0.4910210072994232,
					0.4910210072994232,
					0.4910210072994232,
					1
				]
			}
		},
		{
			"extras": {
				"refId": "f25fe8b1a1fe9107de39e9a3f8ee3403"
			},
			"name": "wep_mel_axe_2h_greataxeDarknessCorruptionS8_m",
			"pbrMetallicRoughness": {
				"baseColorFactor": [
					0.4969330132007599,
					0.4969330132007599,
					0.4969330132007599,
					1
				]
			}
		},
		{
			"extras": {
				"refId": "1fae8ce9e6cf9416a837c32a6a778523"
			},
			"name": "SubMtl18",
			"pbrMetallicRoughness": {
				"baseColorFactor": [
					1,
					0,
					0,
					1
				]
			}
		}
	],
	"meshes": [
		{
			"primitives": [
				{
					"attributes": {
						"COLOR_0": 3,
						"NORMAL": 6,
						"POSITION": 0,
						"TANGENT": 5,
						"TEXCOORD_0": 2
					},
					"indices": 4,
					"material": 2
				},
				{
					"attributes": {
						"COLOR_0": 10,
						"NORMAL": 13,
						"POSITION": 7,
						"TANGENT": 12,
						"TEXCOORD_0": 9
					},
					"indices": 11,
					"material": 4
				},
				{
					"attributes": {
						"COLOR_0": 17,
						"NORMAL": 20,
						"POSITION": 14,
						"TANGENT": 19,
						"TEXCOORD_0": 16
					},
					"indices": 18,
					"material": 1
				},
				{
					"attributes": {
						"COLOR_0": 24,
						"NORMAL": 27,
						"POSITION": 21,
						"TANGENT": 26,
						"TEXCOORD_0": 23
					},
					"indices": 25,
					"material": 6
				},
				{
					"attributes": {
						"COLOR_0": 31,
						"NORMAL": 34,
						"POSITION": 28,
						"TANGENT": 33,
						"TEXCOORD_0": 30
					},
					"indices": 32,
					"material": 7
				},
				{
					"attributes": {
						"COLOR_0": 38,
						"NORMAL": 41,
						"POSITION": 35,
						"TANGENT": 40,
						"TEXCOORD_0": 37
					},
					"indices": 39,
					"material": 3
				},
				{
					"attributes": {
						"COLOR_0": 45,
						"NORMAL": 48,
						"POSITION": 42,
						"TANGENT": 47,
						"TEXCOORD_0": 44
					},
					"indices": 46,
					"material": 0
				}
			]
		}
	],
	"nodes": [
		{
			"mesh": 0
		},
		{}
	],
	"scene": 0,
	"scenes": [
		{
			"name": "Root Scene",
			"nodes": [
				0,
				1
			]
		}
	],
	"textures": [
		{
			"extras": {
				"textureKey": "objects/housing/season_07/textures/s7_shld_roundshieldprimeval_diff.dds"
			},
			"source": 0
		},
		{
			"extras": {
				"textureKey": "objects/housing/season_07/textures/s7_shld_roundshieldprimeval_spec.dds"
			},
			"source": 1
		}
	]
}