{
	"buffers": [
		{
			"uri": "data:application/octet-stream;base64,",
			"byteLength": 1578636
		}
	],
	"accessors": [
		{
			"bufferView": 0,
			"componentType": 5126,
			"count": 396,
			"type": "VEC3",
			"max": [
				0.142578125,
				0.1707763671875,
				0.325927734375
			],
			"min": [
				-0.19921875,
				-0.133544921875,
				-1.95703125
			]
		},
		{
			"bufferView": 1,
			"componentType": 5126,
			"count": 396,
			"type": "VEC3"
		},
		{
			"bufferView": 2,
			"componentType": 5126,
			"count": 396,
			"type": "VEC2"
		},
		{
			"bufferView": 3,
			"componentType": 5121,
			"normalized": true,
			"count": 396,
			"type": "VEC4"
		},
		{
			"bufferView": 4,
			"componentType": 5123,
			"count": 1422,
			"type": "SCALAR"
		},
		{
			"bufferView": 5,
			"componentType": 5126,
			"count": 396,
			"type": "VEC4"
		},
		{
			"bufferView": 6,
			"componentType": 5126,
			"count": 396,
			"type": "VEC3"
		},
		{
			"bufferView": 7,
			"componentType": 5126,
			"count": 460,
			"type": "VEC3",
			"max": [
				0.1895751953125,
				0.109619140625,
				0.11566162109375
			],
			"min": [
				-0.2174072265625,
				-0.01453399658203125,
				-1.33984375
			]
		},
		{
			"bufferView": 8,
			"componentType": 5126,
			"count": 460,
			"type": "VEC3"
		},
		{
			"bufferView": 9,
			"componentType": 5126,
			"count": 460,
			"type": "VEC2"
		},
		{
			"bufferView": 10,
			"componentType": 5121,
			"normalized": true,
			"count": 460,
			"type": "VEC4"
		},
		{
			"bufferView": 11,
			"componentType": 5123,
			"count": 1260,
			"type": "SCALAR"
		},
		{
			"bufferView": 12,
			"componentType": 5126,
			"count": 460,
			"type": "VEC4"
		},
		{
			"bufferView": 13,
			"componentType": 5126,
			"count": 460,
			"type": "VEC3"
		},
		{
			"bufferView": 14,
			"componentType": 5126,
			"count": 10280,
			"type": "VEC3",
			"max": [
				0.85888671875,
				0.1539306640625,
				0.72802734375
			],
			"min": [
				-0.89306640625,
				-0.259033203125,
				-1.1845703125
			]
		},
		{
			"bufferView": 15,
			"componentType": 5126,
			"count": 10280,
			"type": "VEC3"
		},
		{
			"bufferView": 16,
			"componentType": 5126,
			"count": 10280,
			"type": "VEC2"
		},
		{
			"bufferView": 17,
			"componentType": 5121,
			"normalized": true,
			"count": 10280,
			"type": "VEC4"
		},
		{
			"bufferView": 18,
			"componentType": 5123,
			"count": 51780,
			"type": "SCALAR"
		},
		{
			"bufferView": 19,
			"componentType": 5126,
			"count": 10280,
			"type": "VEC4"
		},
		{
			"bufferView": 20,
			"componentType": 5126,
			"count": 10280,
			"type": "VEC3"
		},
		{
			"bufferView": 21,
			"componentType": 5126,
			"count": 3146,
			"type": "VEC3",
			"max": [
				0.5576171875,
				0.2071533203125,
				0.479248046875
			],
			"min": [
				-0.58447265625,
				-0.2061767578125,
				-0.625
			]
		},
		{
			"bufferView": 22,
			"componentType": 5126,
			"count": 3146,
			"type": "VEC3"
		},
		{
			"bufferView": 23,
			"componentType": 5126,
			"count": 3146,
			"type": "VEC2"
		},
		{
			"bufferView": 24,
			"componentType": 5121,
			"normalized": true,
			"count": 3146,
			"type": "VEC4"
		},
		{
			"bufferView": 25,
			"componentType": 5123,
			"count": 15162,
			"type": "SCALAR"
		},
		{
			"bufferView": 26,
			"componentType": 5126,
			"count": 3146,
			"type": "VEC4"
		},
		{
			"bufferView": 27,
			"componentType": 5126,
			"count": 3146,
			"type": "VEC3"
		},
		{
			"bufferView": 28,
			"componentType": 5126,
			"count": 809,
			"type": "VEC3",
			"max": [
				0.1243896484375,
				-0.06707763671875,
				0.2078857421875
			],
			"min": [
				-0.150146484375,
				-0.2763671875,
				-0.2098388671875
			]
		},
		{
			"bufferView": 29,
			"componentType": 5126,
			"count": 809,
			"type": "VEC3"
		},
		{
			"bufferView": 30,
			"componentType": 5126,
			"count": 809,
			"type": "VEC2"
		},
		{
			"bufferView": 31,
			"componentType": 5121,
			"normalized": true,
			"count": 809,
			"type": "VEC4"
		},
		{
			"bufferView": 32,
			"componentType": 5123,
			"count": 2124,
			"type": "SCALAR"
		},
		{
			"bufferView": 33,
			"componentType": 5126,
			"count": 809,
			"type": "VEC4"
		},
		{
			"bufferView": 34,
			"componentType": 5126,
			"count": 809,
			"type": "VEC3"
		},
		{
			"bufferView": 35,
			"componentType": 5126,
			"count": 54,
			"type": "VEC3",
			"max": [
				0.0892333984375,
				-0.1614990234375,
				0.0946044921875
			],
			"min": [
				-0.11083984375,
				-0.2032470703125,
				0.025665283203125
			]
		},
		{
			"bufferView": 36,
			"componentType": 5126,
			"count": 54,
			"type": "VEC3"
		},
		{
			"bufferView": 37,
			"componentType": 5126,
			"count": 54,
			"type": "VEC2"
		},
		{
			"bufferView": 38,
			"componentType": 5121,
			"normalized": true,
			"count": 54,
			"type": "VEC4"
		},
		{
			"bufferView": 39,
			"componentType": 5123,
			"count": 138,
			"type": "SCALAR"
		},
		{
			"bufferView": 40,
			"componentType": 5126,
			"count": 54,
			"type": "VEC4"
		},
		{
			"bufferView": 41,
			"componentType": 5126,
			"count": 54,
			"type": "VEC3"
		},
		{
			"bufferView": 42,
			"componentType": 5126,
			"count": 1136,
			"type": "VEC3",
			"max": [
				-0.2052001953125,
				0.1624755859375,
				0.74951171875
			],
			"min": [
				-0.39697265625,
				-0.019378662109375,
				0.33251953125
			]
		},
		{
			"bufferView": 43,
			"componentType": 5126,
			"count": 1136,
			"type": "VEC3"
		},
		{
			"bufferView": 44,
			"componentType": 5126,
			"count": 1136,
			"type": "VEC2"
		},
		{
			"bufferView": 45,
			"componentType": 5121,
			"normalized": true,
			"count": 1136,
			"type": "VEC4"
		},
		{
			"bufferView": 46,
			"componentType": 5123,
			"count": 2238,
			"type": "SCALAR"
		},
		{
			"bufferView": 47,
			"componentType": 5126,
			"count": 1136,
			"type": "VEC4"
		},
		{
			"bufferView": 48,
			"componentType": 5126,
			"count": 1136,
			"type": "VEC3"
		}
	],
	"asset": {
		"generator": "qmuntal/gltf",
		"version": "2.0"
	},
	"bufferViews": [
		{
			"buffer": 0,
			"byteLength": 4752,
			"target": 34962
		},
		{
			"buffer": 0,
			"byteOffset": 4752,
			"byteLength": 4752,
			"target": 34962
		},
		{
			"buffer": 0,
			"byteOffset": 9504,
			"byteLength": 3168,
			"target": 34962
		},
		{
			"buffer": 0,
			"byteOffset": 12672,
			"byteLength": 1584,
			"target": 34962
		},
		{
			"buffer": 0,
			"byteOffset": 14256,
			"byteLength": 2844,
			"target": 34963
		},
		{
			"buffer": 0,
			"byteOffset": 17100,
			"byteLength": 6336,
			"target": 34962
		},
		{
			"buffer": 0,
			"byteOffset": 23436,
			"byteLength": 4752,
			"target": 34962
		},
		{
			"buffer": 0,
			"byteOffset": 28188,
			"byteLength": 5520,
			"target": 34962
		},
		{
			"buffer": 0,
			"byteOffset": 33708,
			"byteLength": 5520,
			"target": 34962
		},
		{
			"buffer": 0,
			"byteOffset": 39228,
			"byteLength": 3680,
			"target": 34962
		},
		{
			"buffer": 0,
			"byteOffset": 42908,
			"byteLength": 1840,
			"target": 34962
		},
		{
			"buffer": 0,
			"byteOffset": 44748,
			"byteLength": 2520,
			"target": 34963
		},
		{
			"buffer": 0,
			"byteOffset": 47268,
			"byteLength": 7360,
			"target": 34962
		},
		{
			"buffer": 0,
			"byteOffset": 54628,
			"byteLength": 5520,
			"target": 34962
		},
		{
			"buffer": 0,
			"byteOffset": 60148,
			"byteLength": 123360,
			"target": 34962
		},
		{
			"buffer": 0,
			"byteOffset": 183508,
			"byteLength": 123360,
			"target": 34962
		},
		{
			"buffer": 0,
			"byteOffset": 306868,
			"byteLength": 82240,
			"target": 34962
		},
		{
			"buffer": 0,
			"byteOffset": 389108,
			"byteLength": 41120,
			"target": 34962
		},
		{
			"buffer": 0,
			"byteOffset": 430228,
			"byteLength": 103560,
			"target": 34963
		},
		{
			"buffer": 0,
			"byteOffset": 533788,
			"byteLength": 164480,
			"target": 34962
		},
		{
			"buffer": 0,
			"byteOffset": 698268,
			"byteLength": 123360,
			"target": 34962
		},
		{
			"buffer": 0,
			"byteOffset": 821628,
			"byteLength": 37752,
			"target": 34962
		},
		{
			"buffer": 0,
			"byteOffset": 859380,
			"byteLength": 37752,
			"target": 34962
		},
		{
			"buffer": 0,
			"byteOffset": 897132,
			"byteLength": 25168,
			"target": 34962
		},
		{
			"buffer": 0,
			"byteOffset": 922300,
			"byteLength": 12584,
			"target": 34962
		},
		{
			"buffer": 0,
			"byteOffset": 934884,
			"byteLength": 30324,
			"target": 34963
		},
		{
			"buffer": 0,
			"byteOffset": 965208,
			"byteLength": 50336,
			"target": 34962
		},
		{
			"buffer": 0,
			"byteOffset": 1015544,
			"byteLength": 37752,
			"target": 34962
		},
		{
			"buffer": 0,
			"byteOffset": 1053296,
			"byteLength": 9708,
			"target": 34962
		},
		{
			"buffer": 0,
			"byteOffset": 1063004,
			"byteLength": 9708,
			"target": 34962
		},
		{
			"buffer": 0,
			"byteOffset": 1072712,
			"byteLength": 6472,
			"target": 34962
		},
		{
			"buffer": 0,
			"byteOffset": 1079184,
			"byteLength": 3236,
			"target": 34962
		},
		{
			"buffer": 0,
			"byteOffset": 1082420,
			"byteLength": 4248,
			"target": 34963
		},
		{
			"buffer": 0,
			"byteOffset": 1086668,
			"byteLength": 12944,
			"target": 34962
		},
		{
			"buffer": 0,
			"byteOffset": 1099612,
			"byteLength": 9708,
			"target": 34962
		},
		{
			"buffer": 0,
			"byteOffset": 1109320,
			"byteLength": 648,
			"target": 34962
		},
		{
			"buffer": 0,
			"byteOffset": 1109968,
			"byteLength": 648,
			"target": 34962
		},
		{
			"buffer": 0,
			"byteOffset": 1110616,
			"byteLength": 432,
			"target": 34962
		},
		{
			"buffer": 0,
			"byteOffset": 1111048,
			"byteLength": 216,
			"target": 34962
		},
		{
			"buffer": 0,
			"byteOffset": 1111264,
			"byteLength": 276,
			"target": 34963
		},
		{
			"buffer": 0,
			"byteOffset": 1111540,
			"byteLength": 864,
			"target": 34962
		},
		{
			"buffer": 0,
			"byteOffset": 1112404,
			"byteLength": 648,
			"target": 34962
		},
		{
			"buffer": 0,
			"byteOffset": 1113052,
			"byteLength": 13632,
			"target": 34962
		},
		{
			"buffer": 0,
			"byteOffset": 1126684,
			"byteLength": 13632,
			"target": 34962
		},
		{
			"buffer": 0,
			"byteOffset": 1140316,
			"byteLength": 9088,
			"target": 34962
		},
		{
			"buffer": 0,
			"byteOffset": 1149404,
			"byteLength": 4544,
			"target": 34962
		},
		{
			"buffer": 0,
			"byteOffset": 1153948,
			"byteLength": 4476,
			"target": 34963
		},
		{
			"buffer": 0,
			"byteOffset": 1158424,
			"byteLength": 18176,
			"target": 34962
		},
		{
			"buffer": 0,
			"byteOffset": 1176600,
			"byteLength": 13632,
			"target": 34962
		},
		{
			"buffer": 0,
			"byteOffset": 1190232,
			"byteLength": 114920
		},
		{
			"buffer": 0,
			"byteOffset": 1305152,
			"byteLength": 102258
		},
		{
			"buffer": 0,
			"byteOffset": 1407410,
			"byteLength": 106234
		},
		{
			"buffer": 0,
			"byteOffset": 1513644,
			"byteLength": 64992
		}
	],
	"images": [
		{
			"name": "objects/housing/season_07/textures/s7_shld_roundshieldprimeval_diff.dds",
			"mimeType": "image/png",
			"bufferView": 49
		},
		{
			"name": "objects/housing/season_07/textures/s7_shld_roundshieldprimeval_spec.dds",
			"mimeType": "image/png",
			"bufferView": 50
		},
		{
			"name": "objects/housing/season_07/textures/s7_axe_2h_greataxeprimeval_diff.dds",
			"mimeType": "image/png",
			"bufferView": 51
		},
		{
			"name": "objects/housing/season_07/textures/s7_axe_2h_greataxeprimeval_spec.dds",
			"mimeType": "image/png",
			"bufferView": 52
		}
	],
	"materials": [
		{
			"extras": {
				"refId": "30c54f32eb29288476f6d17941099670"
			},
			"name": "s7_metal_shield",
			"pbrMetallicRoughness": {
				"baseColorFactor": [
					0.4969330132007599,
					0.4969330132007599,
					0.4969330132007599,
					1
				]
			}
		},
		{
			"extras": {
				"refId": "e86e33ef4780b3bbc5c8b6d85d5484a6"
			},
			"name": "s7_skull",
			"pbrMetallicRoughness": {
				"baseColorFactor": [
					0.4910210072994232,
					0.4910210072994232,
					0.4910210072994232,
					1
				]
			}
		},
		{
			"extras": {
				"refId": "a1acf2da34f544f7c6835149fbe2a5d4"
			},
			"name": "s7_fissure_mat",
			"pbrMetallicRoughness": {
				"baseColorFactor": [
					0.3049873411655426,
					0.3049873411655426,
					0.3049873411655426,
					1
				]
			}
		},
		{
			"alphaCutoff": 0.009999999776482582,
			"extras": {
				"refId": "07f81a6f80b9b0249a754b9bc712ab89"
			},
			"name": "s_7_drips_a",
			"pbrMetallicRoughness": {
				"baseColorFactor": [
					0.49102088809013367,
					0.49102088809013367,
					0.49102088809013367,
					1
				]
			},
			"alphaMode": "BLEND",
			"doubleSided": true
		},
		{
			"alphaCutoff": 0.05000000074505806,
			"extras": {
				"refId": "2438c476769ac9d19bcd1dad706f30e2"
			},
			"name": "s7_drips_b",
			"pbrMetallicRoughness": {
				"baseColorFactor": [
					0.49102088809013367,
					0.49102088809013367,
					0.49102088809013367,
					1
				]
			},
			"alphaMode": "BLEND",
			"doubleSided": true
		},
		{
			"extensions": {
				"KHR_materials_pbrSpecularGlossiness": {
					"diffuseFactor": [
						0.4969330132007599,
						0.4969330132007599,
						0.4969330132007599,
						1
					],
					"diffuseTexture": {
						"index": 0
					},
					"specularGlossinessTexture": {
						"index": 1
					}
				}
			},
			"extras": {
				"refId": "937372d3670a37445a9a6affeaa7ad73"
			},
			"name": "s7_roundshieldprimeval",
			"pbrMetallicRoughness": {
				"roughnessFactor": 0
			}
		},
		{
			"extras": {
				"refId": "8f3a778a11506f4ab36d4048bdace5c0"
			},
			"name": "s7_Skeleton_body",
			"pbrMetallicRoughness": {
				"baseColorFactor": [
					0.4910210072994232,
					0.4910210072994232,
					0.4910210072994232,
					1
				]
			}
		},
		{
			"extensions": {
				"KHR_materials_pbrSpecularGlossiness": {
					"diffuseFactor": [
						0.4969330132007599,
						0.4969330132007599,
						0.4969330132007599,
						1
					],
					"diffuseTexture": {
						"index": 2
					},
					"specularGlossinessTexture": {
						"index": 3
					}
				}
			},
			"extras": {
				"refId": "8c232e5dbdd7547e70e4db4fe984b9fc"
			},
			"name": "s7_greataxeprimeval",
			"pbrMetallicRoughness": {
				"roughnessFactor": 0
			}
		},
		{
			"extras": {
				"refId": "13041ceac8f1c14eb7a972983258bc92"
			},
			"name": "col",
			"pbrMetallicRoughness": {
				"baseColorFactor": [
					1,
					0,
					0,
					1
				]
			}
		}
	],
	"meshes": [
		{
			"primitives": [
				{
					"attributes": {
						"COLOR_0": 3,
						"NORMAL": 6,
						"POSITION": 0,
						"TANGENT": 5,
						"TEXCOORD_0": 2
					},
					"indices": 4,
					"material": 3
				},
				{
					"attributes": {
						"COLOR_0": 10,
						"NORMAL": 13,
						"POSITION": 7,
						"TANGENT": 12,
						"TEXCOORD_0": 9
					},
					"indices": 11,
					"material": 4
				},
				{
					"attributes": {
						"COLOR_0": 17,
						"NORMAL": 20,
						"POSITION": 14,
						"TANGENT": 19,
						"TEXCOORD_0": 16
					},
					"indices": 18,
					"material": 7
				},
				{
					"attributes": {
						"COLOR_0": 24,
						"NORMAL": 27,
						"POSITION": 21,
						"TANGENT": 26,
						"TEXCOORD_0": 23
					},
					"indices": 25,
					"material": 5
				},
				{
					"attributes": {
						"COLOR_0": 31,
						"NORMAL": 34,
						"POSITION": 28,
						"TANGENT": 33,
						"TEXCOORD_0": 30
					},
					"indices": 32,
					"material": 1
				},
				{
					"attributes": {
						"COLOR_0": 38,
						"NORMAL": 41,
						"POSITION": 35,
						"TANGENT": 40,
						"TEXCOORD_0": 37
					},
					"indices": 39,
					"material": 2
				},
				{
					"attributes": {
						"COLOR_0": 45,
						"NORMAL": 48,
						"POSITION": 42,
						"TANGENT": 47,
						"TEXCOORD_0": 44
					},
					"indices": 46,
					"material": 6
				}
			]
		}
	],
	"nodes": [
		{
			"mesh": 0
		},
		{}
	],
	"scene": 0,
	"scenes": [
		{
			"name": "Root Scene",
			"nodes": [
				0,
				1
			]
		}
	],
	"textures": [
		{
			"extras": {
				"textureKey": "objects/housing/season_07/textures/s7_shld_roundshieldprimeval_diff.dds"
			},
			"source": 0
		},
		{
			"extras": {
				"textureKey": "objects/housing/season_07/textures/s7_shld_roundshieldprimeval_spec.dds"
			},
			"source": 1
		},
		{
			"extras": {
				"textureKey": "objects/housing/season_07/textures/s7_axe_2h_greataxeprimeval_diff.dds"
			},
			"source": 2
		},
		{
			"extras": {
				"textureKey": "objects/housing/season_07/textures/s7_axe_2h_greataxeprimeval_spec.dds"
			},
			"source": 3
		}
	]
}